<svg width="30.7" height="19.4" xmlns="http://www.w3.org/2000/svg">
    <path fill="#ff6a00" stroke="none" d="M 10.3 8.4 L 20.6 8.4 L 20.6 10.7 L 10.3 10.7 Z"/>
    <path fill="#ff6a00" stroke="none" d="M 25.6 0 L 18.9 0 L 20.6 2.3 L 25.500002 3.9 C 26.4 4.2 27 5.1 27 6 L 27 13.4 C 27 14.3 26.4 15.2 25.500002 15.5 L 20.6 17.1 L 18.9 19.4 L 25.6 19.4 C 28.4 19.4 30.7 17.2 30.7 14.3 L 30.7 5.2 C 30.7 2.3 28.499998 0 25.6 0 Z"/>
    <path fill="#ff6a00" stroke="none" d="M 5.3 15.4 C 4.4 15.1 3.8 14.2 3.8 13.3 L 3.8 5.9 C 3.8 5 4.4 4.1 5.3 3.8 L 10.2 2.2 L 11.9 -0.1 L 5.2 -0.1 C 2.2 0 0 2.3 0 5.2 L 0 14.2 C 0 17 2.2 19.3 5.1 19.3 L 11.8 19.3 L 10.1 17 C 10.1 17 5.2 15.5 5.2 15.5 Z"/>
</svg>
