<?xml version="1.0" encoding="UTF-8"?>
<svg id="_图层_1" data-name="图层 1" xmlns="http://www.w3.org/2000/svg" version="1.1" viewBox="0 0 80 80">
  <defs>
    <style>
      .cls-1 {
        fill: #ff6a00;
        stroke-width: 0px;
      }
    </style>
  </defs>
  <rect class="cls-1" x="26.8" y="36.7" width="26.8" height="6.1"/>
  <path class="cls-1" d="M66.8,14.8h-17.6l4.3,6.1,12.7,4.1c2.3.8,3.8,3.1,3.8,5.4v19.4c0,2.3-1.5,4.6-3.8,5.4l-12.7,4.1-4.3,6.1h17.6c7.4,0,13.2-5.9,13.2-13.2v-23.7c0-7.4-5.9-13.5-13.2-13.5Z"/>
  <path class="cls-1" d="M13.8,55c-2.3-.8-3.8-3.1-3.8-5.4v-19.4c0-2.3,1.5-4.6,3.8-5.4l12.7-4.1,4.3-6.1H13.2C5.9,14.8,0,20.9,0,28.3v23.4c0,7.4,5.9,13.2,13.2,13.2h17.6l-4.3-6.1s-12.7-3.8-12.7-3.8Z"/>
</svg>