<?xml version="1.0" encoding="UTF-8"?>
<svg id="_图层_1" data-name="图层 1" xmlns="http://www.w3.org/2000/svg" version="1.1" viewBox="0 0 80 80">
  <defs>
    <style>
      .cls-1 {
        fill: #00a3ff;
      }

      .cls-1, .cls-2, .cls-3 {
        stroke-width: 0px;
      }

      .cls-2 {
        fill: #00c8dc;
      }

      .cls-3 {
        fill: #006eff;
      }
    </style>
  </defs>
  <path class="cls-1" d="M69.2,58.4c-1.3,1.3-3.9,3.2-8.4,3.2h-27.8c8.4-8.1,15.5-14.8,16.1-15.5s2.3-2.3,3.9-3.6c3.2-2.9,5.8-3.2,8.1-3.2,3.2,0,5.8,1.3,8.1,3.2,4.5,4.2,4.5,11.6,0,15.8M74.7,37.4c-3.2-3.6-8.1-5.8-13.2-5.8s-8.4,1.6-11.9,4.2c-1.3,1.3-3.2,2.6-4.8,4.5-1.3,1.3-29.1,28.4-29.1,28.4,1.6.3,3.6.3,5.2.3h35c2.6,0,4.5,0,6.5-.3,4.2-.3,8.4-1.9,11.9-5.2,7.6-7.1,7.6-19,.5-26.1Z"/>
  <path class="cls-2" d="M29.7,35.5c-3.6-2.6-7.1-3.9-11.3-3.9s-10,2.3-13.2,5.8c-6.9,7.4-6.9,19,.3,26.5,3.2,2.9,6.5,4.5,10.3,4.8l7.4-7.1h-4.2c-4.2-.3-6.8-1.6-8.4-3.2-4.5-4.5-4.5-11.6-.3-16.1,2.3-2.3,4.8-3.2,8.1-3.2s4.8.3,7.7,3.2c1.3,1.3,4.8,3.9,6.1,5.2h.3l4.8-4.8v-.3c-2.3-2.3-5.8-5.2-7.7-6.8"/>
  <path class="cls-3" d="M63.6,27.4c-3.6-9.7-12.9-16.5-23.6-16.5s-22.6,9.4-24.5,21c1,0,1.9-.3,3.2-.3s2.9.3,4.2.3h0c1.6-8.1,8.7-13.9,17.1-13.9s13.2,4.2,16.1,10.3c0,0,.3.3.3,0,2.3-.3,4.8-1,7.1-1q0,.3,0,0"/>
</svg>