<svg width="27.7" height="20" xmlns="http://www.w3.org/2000/svg">
    <path fill="#00a3ff" stroke="none" d="M 24 16.3 C 23.6 16.7 22.7 17.4 21.1 17.4 L 11.5 17.4 C 14.4 14.6 16.9 12.3 17.1 12.1 C 17.3 11.9 17.9 11.3 18.4 10.9 C 19.5 9.9 20.4 9.8 21.2 9.8 C 22.3 9.8 23.2 10.2 24 10.9 C 25.6 12.3 25.6 14.9 24 16.3 Z M 25.9 9.1 C 24.7 7.8 23.1 7.1 21.3 7.1 C 19.7 7.1 18.4 7.7 17.2 8.5 C 16.8 8.9 16.1 9.4 15.5 10.1 C 15.1 10.5 5.5 19.9 5.5 19.9 C 6.1 20 6.7 20 7.3 20 L 19.5 20 C 20.4 20 21.1 20 21.7 19.9 C 23.2 19.8 24.7 19.2 25.8 18.1 C 28.4 15.7 28.4 11.5 25.9 9.1 Z"/>
    <path fill="#00c8dc" stroke="none" d="M 10.3 8.4 C 9.1 7.5 7.8 7.1 6.4 7.1 C 4.7 7.1 3 7.8 1.8 9.1 C -0.7 11.6 -0.6 15.7 1.9 18.2 C 3 19.2 4.1 19.8 5.5 19.9 L 8.1 17.5 L 6.7 17.5 C 5.3 17.4 4.4 16.9 3.8 16.4 C 2.3 14.9 2.2 12.4 3.7 10.8 C 4.5 10 5.4 9.7 6.5 9.7 C 7.6 9.7 8.2 9.8 9.2 10.8 C 9.6 11.2 10.9 12.1 11.3 12.6 L 11.4 12.6 L 13.1 10.9 L 13.1 10.9 C 12.3 10 11.1 9 10.4 8.5"/>
    <path fill="#006eff" stroke="none" d="M 22 5.7 C 20.7 2.3 17.5 0 13.9 0 C 9.6 0 6.1 3.2 5.4 7.2 C 5.7 7.2 6.1 7.1 6.5 7.1 C 6.9 7.1 7.5 7.2 7.9 7.2 C 8.5 4.4 10.9 2.4 13.8 2.4 C 16.3 2.4 18.4 3.8 19.4 6 C 19.4 6 19.5 6.1 19.5 6 C 20.3 5.9 21.2 5.7 22 5.7 Q 22 5.8 22 5.7"/>
</svg>
